<svg width="418" height="479" viewBox="0 0 418 479" fill="none" xmlns="http://www.w3.org/2000/svg">
<g clip-path="url(#clip0_2_154)">
<path d="M121.916 179.753C127.716 168.354 132.116 156.282 134.806 143.792C135.643 139.956 133.643 135.938 129.716 134.865C126.08 133.865 121.625 136.101 120.789 139.956C118.316 151.391 114.553 162.209 109.335 172.499C107.554 175.99 108.463 180.389 111.99 182.426C115.262 184.298 120.135 183.262 121.916 179.753Z" fill="#5D6A85"/>
<path d="M163.023 178.517C162.186 166.481 161.332 154.464 160.496 142.428C160.223 138.647 157.405 134.956 153.278 135.101C149.587 135.247 145.678 138.265 145.951 142.319C146.787 154.355 147.642 166.372 148.478 178.408C148.751 182.189 151.569 185.88 155.696 185.734C159.386 185.607 163.295 182.571 163.023 178.517Z" fill="#5D6A85"/>
<path d="M119.352 87.1574C119.406 87.1212 119.497 87.0306 119.606 86.9581C119.66 86.9037 119.733 86.8493 119.787 86.7949C119.533 86.9943 119.406 87.1031 119.352 87.1574Z" fill="#5D6A85"/>
<path d="M115.697 90.9757C115.715 90.9396 115.751 90.9215 115.77 90.8853C115.806 90.8311 115.842 90.7769 115.878 90.7227C115.824 90.813 115.751 90.9034 115.697 90.9757Z" fill="#5D6A85"/>
<path d="M108.336 112.793C108.354 112.666 108.372 112.539 108.372 112.412C108.354 112.666 108.336 112.775 108.336 112.793Z" fill="#5D6A85"/>
<path d="M112.245 97.1579C112.299 97.0491 112.335 96.9222 112.39 96.8135C112.281 97.0491 112.245 97.1397 112.245 97.1579Z" fill="#5D6A85"/>
<path d="M125.788 83.4688C125.861 83.4325 125.934 83.4143 125.988 83.3779C125.77 83.487 124.625 83.9052 125.788 83.4688Z" fill="#5D6A85"/>
<path d="M180.893 115.648C177.912 101.904 172.039 86.9229 161.531 77.1963C158.367 80.9051 155.386 84.7413 152.35 88.5592C153.44 89.6319 154.44 90.7591 155.422 91.9226C155.477 91.9953 155.513 92.0317 155.549 92.0863C156.004 92.6317 155.04 91.4136 155.549 92.0863C155.568 92.1226 155.604 92.159 155.64 92.2135C156.022 92.7226 156.386 93.2498 156.749 93.7771C157.513 94.8861 158.222 96.0133 158.895 97.1586C160.131 99.2676 161.513 102.013 162.294 103.922C164.167 108.485 165.712 114.248 166.84 119.448C167.658 123.175 172.112 125.739 175.748 124.593C179.675 123.302 181.766 119.63 180.893 115.648Z" fill="#5D6A85"/>
<path d="M145.969 68.233C128.788 63.2333 108.953 71.9236 100.736 87.6863C95.9359 96.8857 94.2451 107.212 93.2815 117.43C92.9179 121.23 96.8085 124.884 100.499 124.757C104.717 124.593 107.444 121.593 107.826 117.539C107.971 115.957 108.153 114.375 108.335 112.812C108.335 112.794 108.353 112.685 108.371 112.43C108.353 112.557 108.335 112.685 108.335 112.812C108.335 112.885 108.59 111.048 108.644 110.703C108.808 109.721 108.99 108.721 109.19 107.74C109.917 104.158 110.862 100.576 112.244 97.1766C112.244 97.1584 112.28 97.0493 112.389 96.8311C112.335 96.9402 112.298 97.0675 112.244 97.1766C112.226 97.2493 112.862 95.8494 113.026 95.5403C113.407 94.7586 113.826 93.995 114.28 93.2496C114.716 92.5041 115.207 91.7951 115.68 91.0679C115.716 91.0133 115.753 90.9588 115.789 90.9043C115.771 90.9406 115.735 90.9588 115.716 90.9952C115.771 90.9406 115.826 90.8497 115.898 90.7588C116.207 90.3043 116.062 90.5225 115.898 90.7588C115.862 90.7952 115.844 90.8497 115.789 90.9224C116.171 90.4497 116.553 89.977 116.971 89.5407C117.553 88.9044 118.171 88.2862 118.807 87.7045C119.08 87.4681 119.334 87.2318 119.607 86.9954C119.498 87.0863 119.407 87.159 119.353 87.1954C119.316 87.2318 119.298 87.2318 119.353 87.1954C119.407 87.1409 119.534 87.0318 119.789 86.8318C119.734 86.8863 119.662 86.9409 119.607 86.9954C119.716 86.9227 119.807 86.8318 119.88 86.7954C121.48 85.7228 123.152 84.7592 124.898 83.9411C125.189 83.7956 125.498 83.6684 125.807 83.5229C124.643 83.9411 125.77 83.5411 126.007 83.432C125.934 83.4684 125.861 83.4865 125.807 83.5229C125.843 83.5047 125.861 83.5047 125.879 83.4865C126.625 83.2138 127.37 82.9411 128.134 82.7048C129.606 82.2503 131.115 81.9048 132.624 81.6321C132.679 81.6139 132.861 81.5776 133.243 81.523C133.043 81.5594 132.843 81.5958 132.624 81.6321C132.406 81.6867 133.697 81.4867 134.152 81.4685C134.915 81.4321 135.661 81.4139 136.424 81.4139C137.188 81.4321 137.933 81.5049 138.697 81.5412C138.751 81.5412 138.806 81.5412 138.842 81.5412C138.733 81.523 138.624 81.5049 138.515 81.4867C138.769 81.523 139.897 81.5958 138.842 81.5412C139.297 81.6139 139.751 81.7048 140.206 81.7957C141.551 82.0866 142.86 82.4866 144.133 82.9593C144.187 82.9775 144.333 83.032 144.624 83.1411C144.46 83.0866 144.296 83.032 144.133 82.9593C143.878 82.8866 145.296 83.4865 145.605 83.6502C146.424 84.0683 147.205 84.5228 147.987 85.0137C148.278 85.1955 149.787 86.2864 149.642 86.1409C149.551 86.0682 149.442 85.9773 149.351 85.9046C149.532 86.05 149.623 86.1227 149.642 86.1409C150.223 86.6136 150.805 87.1045 151.351 87.6136C151.696 87.9226 152.041 88.2499 152.369 88.5771C155.387 84.7774 158.368 80.9231 161.55 77.2142C157.186 73.1417 152.041 70.0147 145.969 68.233Z" fill="#5D6A85"/>
<path d="M149.64 86.1033C149.603 86.0671 149.531 85.9946 149.35 85.8677C149.44 85.9402 149.531 86.0308 149.64 86.1033Z" fill="#5D6A85"/>
<path d="M132.625 81.5964C132.824 81.56 133.024 81.5237 133.243 81.4873C132.861 81.5418 132.679 81.5782 132.625 81.5964Z" fill="#5D6A85"/>
<path d="M155.568 92.0497C156.022 92.5935 155.061 91.3791 155.568 92.0497Z" fill="#5D6A85"/>
<path d="M138.515 81.4497C138.624 81.4679 138.733 81.4861 138.842 81.5042C139.896 81.5588 138.751 81.5042 138.515 81.4497Z" fill="#5D6A85"/>
<path d="M144.114 82.9224C144.277 82.9769 144.441 83.0314 144.605 83.1042C144.332 82.9951 144.186 82.9405 144.114 82.9224Z" fill="#5D6A85"/>
<path d="M143.115 72.1603C142.424 64.0881 141.733 56.0159 141.042 47.9618C140.715 44.053 137.533 40.835 133.479 40.9987C129.679 41.1441 126.17 44.6348 126.516 48.5618C127.207 56.634 127.897 64.7062 128.588 72.7603C128.916 76.6691 132.097 79.8871 136.151 79.7235C139.951 79.578 143.46 76.0873 143.115 72.1603Z" fill="#5D6A85"/>
<path d="M51.5572 248.565C67.429 243.475 81.9189 235.275 94.4091 224.239C97.3543 221.64 97.0089 216.585 94.3545 213.949C91.4093 211.04 87.0277 211.404 84.0643 214.004C73.8104 223.058 60.7748 230.33 47.7757 234.512C44.1577 235.675 41.4124 239.548 42.6305 243.42C43.7941 247.038 47.6666 249.801 51.5572 248.565Z" fill="#5D6A85"/>
<path d="M152.495 218.422C153.676 235.421 154.149 252.474 153.931 269.528C153.876 273.328 157.24 277 161.149 276.855C165.112 276.709 168.421 273.709 168.476 269.637C168.694 252.584 168.221 235.548 167.039 218.531C166.785 214.75 163.949 211.059 159.822 211.204C156.131 211.332 152.204 214.368 152.495 218.422Z" fill="#5D6A85"/>
<path d="M137.297 55.4334C146.351 52.5608 152.623 41.9615 149.278 32.6894C145.969 23.4718 136.224 17.6176 126.534 20.7083C117.48 23.5809 111.208 34.1802 114.553 43.4523C117.862 52.6699 127.589 58.5059 137.297 55.4334Z" fill="#BEC5D2"/>
<path d="M125.754 163.862C123.263 161.407 119.19 159.517 115.627 159.662C107.173 159.989 101.773 165.971 100.973 174.098C100.937 174.388 100.901 174.661 100.882 174.952C100.519 177.079 100.046 179.17 99.428 181.243C99.028 182.624 98.5735 183.97 98.0645 185.315C97.9918 185.515 97.9372 185.679 97.8827 185.806C97.719 186.097 97.5736 186.351 97.5009 186.497C96.301 188.951 94.8829 191.224 93.3739 193.496C93.1739 193.733 92.9921 193.969 92.7921 194.205C91.8467 195.314 90.8286 196.351 89.7741 197.351C84.2835 202.623 84.1745 212.732 89.8832 217.913C95.8283 223.313 104.573 223.44 110.446 217.804C122.372 206.332 128.481 190.515 130.044 174.298C130.408 170.752 128.208 166.298 125.754 163.862Z" fill="#BEC5D2"/>
<path d="M178.421 82.5774C178.13 74.7416 172.13 67.9238 163.985 67.9238C156.386 67.9238 149.041 74.4689 149.332 82.3593C149.622 90.1951 155.622 97.0129 163.767 97.0129C171.385 97.0129 178.73 90.4678 178.421 82.5774Z" fill="#9EA7B8"/>
<path d="M172.586 210.606C171.768 198.134 170.968 185.68 170.15 173.208C169.877 169.154 169.241 165.681 166.368 162.554C164.005 159.972 160.023 157.882 156.478 157.845C152.66 157.791 148.606 158.845 145.824 161.627C143.333 164.099 140.861 167.845 141.115 171.517C141.933 183.989 142.733 196.443 143.551 208.915C143.824 212.969 144.461 216.442 147.333 219.569C149.697 222.15 153.678 224.241 157.223 224.277C161.041 224.332 165.096 223.277 167.877 220.496C170.35 218.023 172.822 214.278 172.586 210.606Z" fill="#BEC5D2"/>
<path d="M160.877 130.92C160.823 130.32 160.787 129.702 160.732 129.084C159.55 113.957 158.35 98.8311 157.169 83.6866C156.696 77.7415 155.06 72.3419 150.696 68.0331C146.969 64.3424 140.842 61.5244 135.515 61.7244C129.789 61.9425 123.807 63.8333 119.862 68.1967C116.226 72.1964 113.117 77.7779 113.553 83.3775C114.79 99.122 116.026 114.848 117.262 130.593C117.735 136.538 119.371 141.937 123.734 146.246C127.461 149.937 133.588 152.755 138.915 152.555C144.642 152.337 150.624 150.446 154.569 146.083C158.205 142.083 161.314 136.501 160.877 130.92Z" fill="#BEC5D2"/>
<path d="M69.3554 250.602C76.9549 250.602 84.2999 244.057 84.009 236.166C83.7181 228.33 77.7185 221.513 69.5736 221.513C61.9741 221.513 54.6291 228.058 54.92 235.948C55.2109 243.784 61.2105 250.602 69.3554 250.602Z" fill="#BEC5D2"/>
<path d="M160.949 260.475C168.548 260.475 175.893 253.93 175.602 246.039C175.311 238.203 169.312 231.386 161.167 231.386C153.567 231.386 146.222 237.931 146.513 245.821C146.804 253.657 152.804 260.475 160.949 260.475Z" fill="#BEC5D2"/>
<path d="M34.1572 236.877C42.484 233.732 52.6106 240.149 56.774 251.203C60.9555 262.257 57.5921 273.765 49.2653 276.911L34.1572 236.877Z" fill="#BEC5D2"/>
<path d="M147.751 282.547C147.751 273.656 157.314 266.438 169.132 266.438C180.949 266.438 190.531 273.638 190.531 282.528L147.751 282.547Z" fill="#BEC5D2"/>
<path d="M146.259 35.8709C147.859 40.9069 143.787 46.6884 137.169 48.7973C130.551 50.9063 123.879 48.5246 122.279 43.4886C120.679 38.4525 124.751 32.6711 131.369 30.5621C137.987 28.4714 144.659 30.8348 146.259 35.8709Z" fill="#5D6A85"/>
<path d="M128.007 42.5615C128.098 40.6888 130.407 40.5434 131.153 42.0706C131.571 42.9069 132.771 42.1069 132.371 41.2706C131.753 40.0162 130.298 39.2708 128.916 39.598C127.498 39.9434 126.626 41.2161 126.553 42.616C126.517 43.5614 127.971 43.4887 128.007 42.5615Z" fill="#DCE1E8"/>
<path d="M139.695 39.8881C139.604 38.9609 140.895 38.1791 141.64 38.8518C142.331 39.4699 143.313 38.3973 142.622 37.7791C141.004 36.3247 138.023 37.7428 138.259 39.9608C138.35 40.8698 139.804 40.8153 139.695 39.8881Z" fill="#DCE1E8"/>
<path d="M107.391 98.0119C114.991 98.0119 122.336 91.4669 122.045 83.5765C121.754 75.7406 115.754 68.9229 107.609 68.9229C100.01 68.9229 92.6647 75.4679 92.9556 83.3583C93.2465 91.1942 99.2643 98.0119 107.391 98.0119Z" fill="#9EA7B8"/>
<path d="M148.823 77.1953C148.678 77.1953 148.551 77.1953 148.405 77.1953C147.587 77.1953 146.733 77.5407 146.169 78.1225C145.642 78.6498 145.242 79.5406 145.26 80.286C145.296 81.1042 145.569 81.9586 146.187 82.5222C146.787 83.0677 147.532 83.4313 148.351 83.4313C148.496 83.4313 148.623 83.4313 148.769 83.4313C149.587 83.4313 150.441 83.0858 151.005 82.5041C151.532 81.9768 151.932 81.086 151.914 80.3406C151.878 79.5224 151.605 78.6679 150.987 78.1043C150.405 77.5589 149.66 77.1953 148.823 77.1953Z" fill="#5D6A85"/>
<path d="M142.169 90.4683C145.478 90.4683 148.805 90.4683 152.114 90.4683C152.914 90.4683 152.914 89.2139 152.114 89.2139C148.805 89.2139 145.478 89.2139 142.169 89.2139C141.369 89.2139 141.369 90.4683 142.169 90.4683Z" fill="#818BA0"/>
<path d="M143.425 94.1949C145.915 94.1949 148.388 94.1949 150.879 94.1949C151.679 94.1949 151.679 92.9404 150.879 92.9404C148.388 92.9404 145.915 92.9404 143.425 92.9404C142.607 92.9404 142.607 94.1949 143.425 94.1949Z" fill="#818BA0"/>
<path d="M32.5951 235.422C36.7948 249.603 42.0854 263.438 48.4304 276.801C48.885 277.765 50.3212 276.929 49.8667 275.965C43.5762 262.729 38.3402 249.039 34.195 234.986C33.8859 233.968 32.286 234.404 32.5951 235.422Z" fill="#5D6A85"/>
<path d="M147.151 284.564C162.205 284.564 177.258 284.564 192.312 284.564C193.385 284.564 193.385 282.91 192.312 282.91C177.258 282.91 162.205 282.91 147.151 282.91C146.079 282.892 146.079 284.564 147.151 284.564Z" fill="#5D6A85"/>
<path d="M130.589 18.2546C129.953 14.4003 129.317 10.546 128.68 6.69172C128.498 5.63724 126.898 6.09176 127.08 7.12806C127.717 10.9824 128.353 14.8367 128.989 18.691C129.153 19.7636 130.753 19.3091 130.589 18.2546Z" fill="#5D6A85"/>
<path d="M127.644 9.1258C131.935 9.1258 131.935 2.47168 127.644 2.47168C123.354 2.47168 123.354 9.1258 127.644 9.1258Z" fill="#BEC5D2"/>
<path d="M193.02 106.703C191.457 105.667 191.384 105.885 191.929 106.231C192.22 106.376 192.529 106.503 192.838 106.649C192.893 106.667 192.966 106.685 193.02 106.703Z" fill="#BEC5D2"/>
<path d="M190.62 105.43C190.729 105.412 190.438 105.139 189.348 104.612C189.366 104.63 189.384 104.648 189.402 104.648C189.802 104.885 190.202 105.157 190.62 105.43Z" fill="#BEC5D2"/>
<path d="M225.584 118.12C222.075 107.03 212.766 107.593 203.003 107.975C191.04 108.448 178.205 91.4309 167.351 103.394C161.915 109.393 161.824 118.12 167.46 124.047C172.987 129.847 180.568 133.955 188.35 135.755C197.422 137.846 206.13 137.264 215.257 136.01C218.693 135.537 222.475 132.065 224.129 129.21C225.929 126.101 226.693 121.593 225.584 118.12Z" fill="#BEC5D2"/>
<path d="M197.895 108.029C198.131 108.047 198.312 108.047 198.33 108.029C198.294 108.066 198.131 108.066 197.895 108.029Z" fill="#BEC5D2"/>
<path d="M111.044 111.703C109.262 108.667 105.79 105.812 102.299 105.012C92.3181 102.74 86.3912 109.667 83.3186 118.157C80.5552 125.756 75.61 133.229 70.9921 139.792C66.5742 146.064 69.774 156.318 76.3373 159.736C83.8822 163.663 91.5727 161.082 96.2814 154.391C103.136 144.664 108.335 134.083 112.517 122.957C113.789 119.593 112.789 114.684 111.044 111.703Z" fill="#BEC5D2"/>
<path d="M46.0301 156.772C53.7932 160.681 63.1381 160.372 70.374 155.427C74.7555 152.427 70.5922 145.209 66.1561 148.245C61.4109 151.5 55.3931 152.209 50.1753 149.572C45.412 147.173 41.2304 154.354 46.0301 156.772Z" fill="#5D6A85"/>
<path d="M47.5755 165.699C56.1204 167.681 65.2107 166.099 72.3557 160.936C76.6463 157.827 72.5012 150.609 68.1378 153.754C62.7563 157.645 56.284 159.19 49.7572 157.663C44.5575 156.463 42.3576 164.481 47.5755 165.699Z" fill="#5D6A85"/>
<path d="M74.8619 163.664C76.9345 166.3 78.2435 169.7 78.5708 173.027C78.789 175.263 80.2798 177.208 82.6978 177.208C84.7522 177.226 87.1157 175.317 86.8793 173.081C86.3157 167.282 84.2795 162.318 80.6979 157.737C79.3162 155.973 76.2437 156.319 74.8074 157.773C73.0984 159.537 73.4802 161.882 74.8619 163.664Z" fill="#5D6A85"/>
<path d="M69.1361 158.081C65.809 162.79 61.682 166.971 57.046 170.389C55.2461 171.716 54.337 174.007 55.5733 176.08C56.6278 177.861 59.4458 178.898 61.2639 177.552C67.1544 173.225 72.1177 168.189 76.3538 162.226C79.4445 157.863 72.2086 153.736 69.1361 158.081Z" fill="#5D6A85"/>
<path d="M66.7758 155.354C69.3575 156.953 71.7391 159.008 73.5572 161.444C74.9026 163.244 77.157 164.153 79.2477 162.917C81.0294 161.88 82.0839 159.026 80.7204 157.226C77.9933 153.572 74.8117 150.554 70.921 148.154C66.3577 145.336 62.2125 152.536 66.7758 155.354Z" fill="#5D6A85"/>
<path d="M238.585 99.3217C231.385 97.2491 224.367 94.7038 217.55 91.5768C212.714 89.3587 208.514 96.5401 213.386 98.7763C220.84 102.194 228.494 105.067 236.385 107.339C241.548 108.812 243.73 100.794 238.585 99.3217Z" fill="#5D6A85"/>
<path d="M235.348 106.94C228.148 104.868 221.112 102.322 214.313 99.1954C209.477 96.9774 205.277 104.159 210.149 106.395C217.604 109.813 225.258 112.685 233.148 114.958C238.311 116.449 240.493 108.413 235.348 106.94Z" fill="#5D6A85"/>
<path d="M233.129 115.102C225.93 113.029 218.894 110.484 212.094 107.357C207.258 105.139 203.058 112.32 207.931 114.556C215.385 117.974 223.039 120.847 230.929 123.119C236.093 124.61 238.274 116.574 233.129 115.102Z" fill="#5D6A85"/>
<path d="M213.367 99.0494C221.148 101.886 228.948 104.704 236.729 107.54C237.729 107.903 238.165 106.303 237.165 105.94C229.384 103.104 221.584 100.286 213.803 97.4495C212.803 97.0677 212.367 98.6858 213.367 99.0494Z" fill="#818BA0"/>
<path d="M211.42 108.031C218.819 110.722 226.219 113.413 233.619 116.103C234.618 116.467 235.055 114.867 234.055 114.504C226.655 111.813 219.256 109.122 211.856 106.431C210.856 106.068 210.42 107.668 211.42 108.031Z" fill="#818BA0"/>
<path d="M47.5218 157.044C53.9941 158.135 60.4119 157.571 66.5569 155.28C67.5569 154.917 67.1205 153.299 66.1206 153.68C60.2664 155.862 54.1214 156.48 47.9581 155.444C46.9218 155.262 46.4673 156.88 47.5218 157.044Z" fill="#818BA0"/>
<path d="M63.0463 166.408C64.9553 165.263 66.8643 164.118 68.7732 162.972C69.6823 162.427 68.8459 160.991 67.9369 161.536C66.0279 162.681 64.119 163.827 62.21 164.972C61.301 165.536 62.1373 166.972 63.0463 166.408Z" fill="#818BA0"/>
<path d="M189.493 11.2902C190.929 12.7083 192.365 14.1264 193.802 15.5445C194.565 16.2899 195.747 15.1263 194.983 14.3628C193.547 12.9447 192.111 11.5266 190.675 10.1085C189.893 9.36307 188.729 10.5448 189.493 11.2902Z" fill="#DCE1E8"/>
<path d="M182.62 31.9066C184.547 31.652 186.438 31.7429 188.329 32.1974C189.365 32.452 189.819 30.8521 188.765 30.5975C186.729 30.0885 184.693 29.9612 182.62 30.2339C181.565 30.3794 181.565 32.052 182.62 31.9066Z" fill="#DCE1E8"/>
<path d="M216.021 1.03744C216.239 3.00095 216.475 4.94628 216.693 6.90979C216.821 7.96427 218.475 7.96427 218.348 6.90979C218.13 4.94628 217.893 3.00095 217.675 1.03744C217.566 -0.0170411 215.893 -0.0352218 216.021 1.03744Z" fill="#DCE1E8"/>
<path d="M251.325 9.45435C252.562 7.83627 253.798 6.21819 255.034 4.60012C255.689 3.74562 254.234 2.92749 253.598 3.7638C252.362 5.38188 251.125 6.99996 249.889 8.61804C249.235 9.45435 250.671 10.2907 251.325 9.45435Z" fill="#DCE1E8"/>
<path d="M264.033 29.1259C266.524 28.9987 268.924 28.5078 271.251 27.5988C272.233 27.217 271.815 25.6171 270.815 25.9989C268.633 26.8352 266.379 27.3442 264.051 27.4533C262.961 27.526 262.961 29.1805 264.033 29.1259Z" fill="#DCE1E8"/>
<path d="M0.0686311 57.4327C3.06844 65.4686 7.01364 73.5954 14.1768 78.7223C20.5401 83.2856 29.2668 84.9583 36.1391 80.5222C39.0298 78.6496 41.3933 75.8861 42.4841 72.5954C43.2841 70.1774 43.9204 66.3413 40.5024 65.9413C37.7571 65.6322 35.3209 67.8503 34.3755 70.2683C32.9574 73.8862 34.6482 77.886 36.6117 80.9403C41.466 88.4853 49.72 93.2486 58.574 94.1031C59.6466 94.2122 59.6285 92.5396 58.574 92.4487C50.8654 91.7033 43.6113 87.7217 38.9752 81.4676C36.4118 77.9951 33.1574 71.4864 37.9208 68.2866C39.1389 67.4685 41.066 67.0503 41.4478 68.9775C41.6114 69.7774 41.2115 71.0319 40.9933 71.7955C40.4297 73.759 39.2661 75.5407 37.848 76.977C31.7757 83.1947 22.5399 82.3221 15.7404 77.7951C8.52264 72.9954 4.6138 64.8686 1.66853 56.9964C1.30492 55.9965 -0.313163 56.4146 0.0686311 57.4327Z" fill="#BEC5D2"/>
<path d="M205.148 176.372C205.493 184.353 210.656 191.807 218.347 194.334C225.546 196.698 235.6 194.516 239.745 187.68C241.382 184.971 241.363 180.608 238.073 179.099C235.182 177.771 232.055 179.826 230.819 182.462C229.128 186.08 229.891 190.88 230.837 194.625C231.837 198.57 233.618 202.315 235.982 205.624C241.2 212.933 249.09 217.987 258.09 218.896C259.144 219.005 259.144 217.333 258.09 217.242C250.308 216.442 243.327 212.224 238.455 206.17C236.127 203.261 234.291 199.934 233.091 196.407C231.837 192.698 230.71 187.698 232.037 183.862C232.546 182.408 233.564 181.062 235.073 180.553C237.473 179.753 239.291 181.953 239.2 184.153C239.109 186.807 236.764 188.989 234.746 190.407C231.437 192.734 227.346 193.825 223.31 193.607C214.22 193.134 207.202 185.335 206.802 176.39C206.766 175.299 205.111 175.299 205.148 176.372Z" fill="#BEC5D2"/>
<path d="M17.3589 206.352C22.3404 206.097 26.9037 202.134 26.5401 196.898C26.2129 192.153 22.3404 188.044 17.4861 188.062C12.6501 188.08 8.15946 192.225 8.26855 197.152C8.39581 202.207 12.3774 206.115 17.3589 206.352C18.4315 206.406 18.4315 204.734 17.3589 204.679C13.4682 204.497 10.4502 201.625 9.99571 197.752C9.50483 193.48 13.2319 189.717 17.468 189.698C21.1041 189.68 24.0675 192.516 24.7584 196.007C25.6674 200.643 21.8313 204.461 17.3589 204.679C16.2862 204.734 16.2862 206.406 17.3589 206.352Z" fill="#BEC5D2"/>
<path d="M265.523 142.537C270.504 142.283 275.068 138.319 274.704 133.083C274.377 128.338 270.504 124.229 265.65 124.248C260.814 124.266 256.324 128.411 256.433 133.338C256.56 138.392 260.56 142.301 265.523 142.537C266.596 142.592 266.596 140.919 265.523 140.883C261.632 140.701 258.614 137.829 258.16 133.956C257.669 129.684 261.396 125.92 265.632 125.902C269.268 125.884 272.232 128.72 272.922 132.211C273.831 136.847 269.995 140.665 265.523 140.883C264.468 140.919 264.45 142.592 265.523 142.537Z" fill="#BEC5D2"/>
<path d="M69.758 20.9261C64.9764 20.9261 60.3949 24.1077 60.0131 29.1983C59.6132 34.5798 63.7402 39.0159 69.0853 39.2341C73.885 39.434 78.4483 35.907 78.8301 30.9619C79.2664 25.5077 75.0667 21.2534 69.758 20.9261C68.6853 20.8534 68.6853 22.526 69.758 22.5806C74.1759 22.8533 78.0847 26.9076 77.0666 31.5255C76.2484 35.2707 72.8305 37.6705 69.0671 37.5614C64.7219 37.4342 61.3221 33.6526 61.7039 29.3256C62.0675 25.144 65.7946 22.5988 69.758 22.5988C70.8306 22.5988 70.8306 20.9261 69.758 20.9261Z" fill="#BEC5D2"/>
</g>
<path d="M366.834 226.196C367.294 226.787 367.689 227.312 368.083 227.902C368.675 228.558 369.201 229.214 369.727 229.936C368.741 228.689 367.82 227.443 366.834 226.196Z" fill="#FFB3BD"/>
<path d="M362.822 222.391C360.652 220.751 362.099 221.866 362.822 222.522C363.677 223.113 364.86 223.966 362.822 222.391Z" fill="#FFB3BD"/>
<path d="M375.709 240.367C375.972 241.023 376.235 241.679 376.498 242.335C376.893 243.188 377.288 244.041 377.616 244.894C377.025 243.385 376.367 241.876 375.709 240.367Z" fill="#FFB3BD"/>
<path d="M380.772 256.505C380.903 257.358 380.969 258.145 381.035 258.998C381.166 259.786 381.298 260.573 381.429 261.36C381.166 259.72 380.969 258.145 380.772 256.505Z" fill="#FFB3BD"/>
<path d="M380.705 279.467C380.574 280.386 380.508 281.304 380.376 282.157C380.574 280.582 380.837 279.008 381.034 277.499C380.902 278.155 380.837 278.811 380.705 279.467Z" fill="#FFB3BD"/>
<path d="M351.711 354.518C350.461 361.865 353.815 370.131 360.521 373.674C369.464 378.332 380.116 375.708 385.442 366.982C387.94 362.915 390.307 358.782 392.609 354.518H351.711Z" fill="#242E49"/>
<path d="M414.239 297.77C415.094 293.965 415.883 290.095 416.475 286.224C403.982 287.274 391.423 287.995 378.864 288.651C376.695 298.098 373.67 307.414 370.185 316.468C369.659 317.845 369.067 319.223 368.541 320.601C370.382 315.549 368.541 320.666 367.95 321.913C367.621 322.634 367.292 323.356 366.963 324.143C365.911 326.439 364.859 328.67 363.741 330.966C360.717 337.067 357.364 343.037 353.813 348.876C352.695 350.647 352.038 352.615 351.643 354.649H392.607C402.272 336.674 409.768 317.386 414.239 297.77Z" fill="#FFB3BD"/>
<path d="M344.941 280.845C345.007 280.78 345.007 280.78 345.073 280.714C347.046 278.156 342.969 283.47 344.941 280.845Z" fill="#FFB3BD"/>
<path d="M417.466 258.343C415.953 244.566 412.337 231.707 405.827 219.374C399.318 207.106 389.389 194.182 376.37 188.409C371.768 186.375 367.56 185.26 362.497 186.572C358.157 187.753 353.489 191.033 351.385 195.035C348.294 200.873 348.36 209.271 352.239 214.978C350.398 215.831 348.755 216.946 347.571 218.521C333.566 236.3 319.561 254.078 306.016 272.251C314.563 280.91 323.9 288.717 333.369 296.327C334.223 295.212 335.012 294.097 335.867 292.982C338.892 288.914 341.982 284.847 345.072 280.779C345.072 280.779 345.072 280.779 345.072 280.714C345.007 280.779 345.007 280.779 344.941 280.845C342.903 283.469 346.979 278.155 345.072 280.714C345.861 279.729 346.585 278.68 347.374 277.696C349.018 275.596 350.596 273.497 352.239 271.398C359.275 262.279 366.442 253.225 373.543 244.172C374.398 243.122 375.187 242.007 375.844 240.957C376.042 241.417 376.305 241.876 376.502 242.335C376.305 241.81 376.107 241.351 375.91 240.826C376.502 242.204 377.028 243.516 377.62 244.894C377.291 244.041 376.897 243.188 376.502 242.335C378.54 247.715 380.053 253.291 380.973 258.999C380.907 258.146 380.842 257.358 380.71 256.506C380.907 258.146 381.105 259.72 381.368 261.36C381.236 260.573 381.105 259.786 380.973 258.999C381.631 265.821 381.433 272.644 380.644 279.467C380.776 278.811 380.842 278.155 380.973 277.499C380.776 279.073 380.513 280.648 380.316 282.157C380.447 281.238 380.579 280.32 380.644 279.467C380.118 282.55 379.527 285.634 378.869 288.652C391.428 287.996 403.921 287.274 416.479 286.224C417.926 276.974 418.518 267.527 417.466 258.343Z" fill="#FA4D5E"/>
<path d="M260.449 375.446C269.194 379.973 280.372 377.611 285.369 368.754C288.13 363.965 290.892 359.176 293.785 354.453H252.098C249.928 362.325 252.953 371.575 260.449 375.446Z" fill="#242E49"/>
<path d="M333.366 296.327C323.898 288.717 314.561 280.91 306.013 272.25C294.178 288.061 282.737 304.134 272.02 320.666C265.642 330.507 259.527 340.479 253.74 350.582C253.017 351.828 252.491 353.14 252.097 354.518H293.784C301.477 341.856 309.696 329.457 318.178 317.255C323.175 310.235 328.238 303.216 333.366 296.327Z" fill="#FFB3BD"/>
<path d="M225.269 377.676C225.138 364.555 235.658 353.862 248.809 353.731C261.959 353.6 272.677 364.096 272.808 377.217L225.269 377.676Z" fill="white"/>
<path d="M367.098 375.971C366.966 362.85 377.487 352.156 390.637 352.025C403.788 351.894 414.505 362.391 414.637 375.511L367.098 375.971Z" fill="white"/>
<path d="M326.069 204.809C325.74 204.35 325.411 203.891 325.082 203.432C317.126 207.499 309.368 212.026 302.661 217.733C299.373 220.489 296.349 223.572 293.653 227.049C286.354 236.299 281.16 248.108 282.804 260.179C284.513 272.775 292.009 284.387 304.239 289.242C317.784 294.621 333.433 293.178 346.649 287.471C350.66 285.765 354.013 283.206 355.92 279.139C357.564 275.662 358.024 270.741 356.578 267.068C353.553 259.523 344.348 253.553 336.129 257.161C330.671 259.523 309.631 265.428 315.351 251.651C316.206 249.551 317.784 247.846 319.362 246.271C320.611 245.025 321.86 243.844 323.176 242.729C327.055 239.383 331.263 236.562 335.668 233.938C335.997 223.835 331.592 213.6 326.069 204.809Z" fill="#FFB3BD"/>
<path d="M347.896 168.465C348.422 163.545 346.121 159.805 341.19 158.427C336.258 157.05 330.866 158.493 326.264 160.592C321.661 162.692 317.519 165.513 312.785 167.284C301.738 171.417 287.01 170.236 280.106 178.961C279.054 180.274 278.199 182.242 278.856 183.882C279.843 186.309 282.013 185.587 284.051 186.768C285.892 187.818 285.76 190.377 284.445 191.885C283.13 193.394 280.961 194.182 278.988 194.903C270.9 197.987 263.142 201.857 256.106 206.515C252.03 209.205 247.756 212.944 248.479 217.405C248.808 219.636 253.016 219.833 252.884 222.063C252.556 227.64 239.865 231.97 240.326 237.546C240.523 240.17 243.35 242.138 246.243 242.597C249.136 242.991 252.095 242.204 254.791 241.089C261.695 238.333 272.413 225.475 279.185 222.391C289.706 217.537 285.037 228.624 292.533 229.739C299.568 230.789 304.631 221.473 307.59 217.209C312.39 210.255 317.387 202.645 325.475 198.38C326.921 197.593 328.697 196.937 330.34 197.396C331.656 197.724 332.642 198.774 333.891 199.233C337.902 200.676 341.255 196.15 342.505 192.476C345.069 184.472 346.91 176.534 347.896 168.465Z" fill="#FA4D5E"/>
<path d="M294.07 179.501C300.797 178.146 305.151 171.607 303.793 164.895C302.435 158.182 295.881 153.839 289.154 155.193C282.426 156.548 278.073 163.087 279.431 169.8C280.788 176.512 287.343 180.855 294.07 179.501Z" fill="#242E49"/>
<path d="M287.375 124.388C293.912 122.303 297.517 115.325 295.428 108.802C293.338 102.279 286.344 98.6822 279.807 100.767C273.269 102.853 269.664 109.831 271.754 116.353C273.844 122.876 280.837 126.473 287.375 124.388Z" fill="#242E49"/>
<path d="M281.552 116.839L287.922 160.332L293.192 159.564L286.822 116.07L281.552 116.839Z" fill="#242E49"/>
<path d="M367.544 298.401C368.48 291.617 363.726 285.36 356.926 284.427C350.127 283.494 343.856 288.237 342.921 295.021C341.985 301.805 346.739 308.061 353.539 308.995C360.338 309.928 366.609 305.185 367.544 298.401Z" fill="#242E49"/>
<path d="M350.529 229.083C357.367 228.624 363.351 233.741 363.811 240.63C364.271 247.452 359.143 253.422 352.239 253.882C345.4 254.341 339.417 249.224 338.957 242.335C338.496 235.513 343.691 229.608 350.529 229.083Z" fill="#242E49"/>
<path d="M363.022 181.979C358.288 186.833 351.844 190.441 346.123 193.262C339.219 196.674 332.052 199.823 325.148 203.365C325.477 203.759 325.806 204.218 326.135 204.743C331.658 213.534 336.063 223.834 335.669 233.871C351.055 224.818 368.676 219.11 382.484 207.499C372.885 201.791 365.652 192.934 363.022 181.979Z" fill="white"/>
<path d="M401.224 174.042C402.737 162.692 400.567 150.818 394.32 140.846C385.246 126.413 368.611 117.425 351.91 115.392C338.102 113.686 324.557 115.326 311.078 118.606C304.7 120.115 298.256 122.018 292.207 124.707C288.196 126.413 284.843 128.906 282.87 132.974C281.226 136.451 280.766 141.371 282.213 145.045C285.237 152.589 294.443 158.559 302.662 154.951C309.303 152.064 316.338 150.031 323.374 148.456C333.302 146.619 344.48 145.373 354.211 148.587C363.285 151.605 370.518 159.871 369.4 169.318C369.269 170.565 369.006 171.811 368.545 173.058C367.362 176.469 365.389 179.356 362.891 181.98C365.521 192.936 372.754 201.792 382.353 207.5C383.866 206.253 385.246 204.941 386.693 203.564C394.78 195.494 399.712 184.998 401.224 174.042Z" fill="#FFB3BD"/>
<path d="M294.771 155.933L288.327 162.691C286.618 164.593 282.936 165.577 280.371 163.675C277.873 161.838 278.464 158.492 280.634 156.13L284.711 151.8L282.804 151.932L273.073 152.916C266.761 153.44 264.328 150.685 264.065 148.323C264.065 144.19 268.536 144.125 268.536 144.125H271.56C267.221 144.322 263.473 143.731 263.407 140.713L263.341 140.385C262.947 138.352 264.788 137.236 267.287 136.252C265.051 135.727 263.604 134.547 263.276 133.038C262.552 129.036 265.906 126.805 271.034 126.28L301.872 123.853L302.99 155.015L294.771 155.933Z" fill="#FFB3BD"/>
<path d="M267.812 145.436C272.481 144.977 277.149 145.502 281.818 145.043C282.738 144.977 282.738 143.468 281.818 143.534C277.149 143.993 272.481 143.468 267.812 143.927C266.892 144.059 266.892 145.502 267.812 145.436Z" fill="#242E49"/>
<path d="M266.957 137.367C271.428 136.974 275.899 137.039 280.37 136.646C281.291 136.58 281.291 135.071 280.37 135.137C275.899 135.53 271.428 135.465 266.957 135.858C265.971 135.99 265.971 137.499 266.957 137.367Z" fill="#242E49"/>
<path d="M280.109 159.935C282.87 161.115 285.632 162.362 288.393 163.543C289.248 163.936 290.037 162.624 289.117 162.296C286.355 161.115 283.594 159.869 280.832 158.688C279.977 158.229 279.188 159.541 280.109 159.935Z" fill="#242E49"/>
<path d="M284.052 152.85C286.222 150.095 285.959 146.093 282.474 144.518C281.619 144.125 280.83 145.371 281.751 145.765C284.249 146.88 284.644 149.701 283 151.8C282.474 152.522 283.526 153.572 284.052 152.85Z" fill="#242E49"/>
<path d="M282.211 144.913C286.419 142.157 285.039 136.712 280.568 135.203C280.633 135.663 280.699 136.122 280.765 136.581C285.565 134.154 285.433 127.068 280.041 125.56C279.121 125.297 278.726 126.74 279.647 127.003C283.921 128.184 283.658 133.498 280.041 135.335C279.45 135.663 279.647 136.515 280.239 136.712C283.132 137.762 284.776 141.633 281.554 143.732C280.633 144.191 281.357 145.438 282.211 144.913Z" fill="#242E49"/>
<path d="M283.462 152.194C282.278 147.667 281.489 143.009 281.292 138.286C281.094 134.284 281.226 130.348 280.634 126.346C280.503 125.428 279.056 125.821 279.188 126.74C279.911 131.398 279.582 136.055 279.977 140.779C280.305 144.781 281.029 148.717 282.015 152.588C282.278 153.506 283.725 153.112 283.462 152.194Z" fill="#242E49"/>
<path d="M288.394 150.685C289.512 145.831 292.142 141.763 296.022 138.614C296.745 138.024 295.693 136.974 294.97 137.565C290.893 140.845 288.131 145.24 286.948 150.292C286.751 151.21 288.131 151.604 288.394 150.685Z" fill="#242E49"/>
<path d="M287.341 118.409L290.102 144.782L285.5 151.408L282.081 118.934L287.341 118.409Z" fill="#242E49"/>
<path d="M355 250.077L358.813 286.618L353.487 295.606L348.819 250.733L355 250.077Z" fill="#242E49"/>
<path d="M336.259 258.473L340.468 250.273C341.585 248.042 344.742 246.074 347.7 247.058C350.593 248.042 350.922 251.322 349.541 254.209L346.911 259.392L348.687 258.736L357.629 254.996C363.481 252.7 366.506 254.602 367.426 256.702C368.544 260.572 364.336 261.885 364.336 261.885L361.508 262.737C365.585 261.294 369.267 260.769 370.188 263.59L370.319 263.918C371.24 265.69 369.859 267.264 367.755 268.904C369.99 268.707 371.7 269.429 372.423 270.807C374.199 274.349 370.582 277.105 365.914 279.073L338.495 290.554L326.66 262.541L336.259 258.473Z" fill="#FFB3BD"/>
<path d="M347.896 257.619C345.332 258.668 342.767 259.784 340.137 260.833C338.954 261.293 339.48 263.195 340.663 262.736C343.228 261.686 345.792 260.571 348.422 259.521C349.54 259.062 349.08 257.16 347.896 257.619Z" fill="#242E49"/>
<path d="M365.649 260.179C364.663 260.638 363.61 261.032 362.624 261.491C362.821 262.147 362.953 262.738 363.15 263.394C363.282 263.328 363.347 263.328 363.479 263.262C364.663 262.803 364.137 260.901 362.953 261.36C361.967 261.819 360.915 262.213 359.928 262.672C358.745 263.131 359.271 265.034 360.454 264.575C361.441 264.115 362.493 263.722 363.479 263.262C363.282 262.606 363.15 262.016 362.953 261.36C362.821 261.426 362.756 261.426 362.624 261.491C361.441 261.95 361.967 263.853 363.15 263.394C364.137 262.934 365.189 262.541 366.175 262.082C367.358 261.557 366.832 259.654 365.649 260.179Z" fill="#242E49"/>
<path d="M368.742 267.396C366.835 268.183 364.863 269.036 362.956 269.823C361.772 270.282 362.298 272.185 363.482 271.726C365.389 270.938 367.361 270.085 369.268 269.298C370.386 268.839 369.86 266.936 368.742 267.396Z" fill="#242E49"/>
<path d="M350.003 250.141C347.044 249.813 344.085 249.485 341.192 249.157C339.943 249.026 339.943 250.994 341.192 251.125C344.151 251.453 347.11 251.781 350.003 252.109C351.252 252.241 351.252 250.272 350.003 250.141Z" fill="#242E49"/>
<path d="M288.458 262.935C288.787 264.575 289.444 266.084 290.299 267.462C290.957 268.512 292.666 267.528 292.009 266.478C291.22 265.231 290.628 263.919 290.365 262.41C290.102 261.164 288.195 261.689 288.458 262.935Z" fill="#242E49"/>
<path d="M388.072 141.24C389.19 142.88 389.979 144.651 390.176 146.619C390.307 147.866 392.28 147.866 392.148 146.619C391.885 144.323 391.096 142.158 389.781 140.256C389.058 139.206 387.348 140.19 388.072 141.24Z" fill="#242E49"/>
<path d="M302.857 134.547C303.778 134.219 304.698 133.891 305.619 133.563C306.802 133.17 306.276 131.267 305.093 131.661C304.172 131.989 303.252 132.317 302.331 132.645C301.148 133.038 301.674 134.941 302.857 134.547Z" fill="#242E49"/>
<path d="M302.397 130.808C303.252 130.676 304.041 130.545 304.895 130.348C305.421 130.283 305.684 129.627 305.553 129.168C305.421 128.643 304.895 128.38 304.369 128.511C303.515 128.643 302.725 128.774 301.871 128.971C301.345 129.036 301.082 129.692 301.213 130.152C301.345 130.676 301.871 130.873 302.397 130.808Z" fill="#242E49"/>
<path d="M356.315 190.116L349.74 176.339C351.186 176.47 352.633 175.88 353.685 174.699C355.263 172.796 355 169.91 353.027 168.335C351.12 166.761 348.227 167.023 346.649 168.991C346.583 169.123 346.452 169.254 346.386 169.319L343.559 163.349C343.23 162.628 342.375 162.234 341.586 162.497C337.707 163.612 326.989 167.942 327.91 180.603C327.976 181.587 328.83 182.243 329.817 182.112L334.748 181.391L335.077 195.167C335.208 200.35 338.89 204.877 344.019 205.861C344.282 205.927 344.479 205.927 344.742 205.992C353.553 207.304 360.128 198.12 356.315 190.116Z" fill="#FFB3BD"/>
<path d="M337.444 169.647C338.431 168.991 339.68 168.926 340.732 169.451C341.85 169.975 342.902 168.335 341.718 167.745C340.009 166.892 338.102 166.958 336.458 167.942C335.406 168.598 336.392 170.303 337.444 169.647Z" fill="#242E49"/>
<path d="M333.367 166.695C331.592 168.598 329.882 170.5 328.107 172.468C327.581 173.059 327.844 173.846 328.567 174.108C329.751 174.567 330.934 174.83 332.249 174.961C333.498 175.092 333.498 173.124 332.249 172.993C331.131 172.862 330.145 172.599 329.093 172.206C329.225 172.731 329.356 173.321 329.553 173.846C331.329 171.943 333.038 170.041 334.813 168.073C335.668 167.154 334.287 165.777 333.367 166.695Z" fill="#242E49"/>
<path d="M335.144 177.06C336.919 177.651 338.826 175.748 338.234 173.977C338.037 173.452 337.577 173.124 337.051 173.321C336.591 173.452 336.196 174.043 336.393 174.502C336.393 174.567 336.459 174.633 336.459 174.699C336.459 174.567 336.459 174.567 336.459 174.699C336.459 174.83 336.459 174.83 336.459 174.764C336.459 174.699 336.459 174.699 336.459 174.83C336.393 174.961 336.393 174.961 336.459 174.83C336.459 174.895 336.393 174.895 336.393 174.961C336.393 175.027 336.328 175.027 336.328 175.092C336.393 175.027 336.393 175.027 336.328 175.092C336.262 175.092 336.13 175.223 336.262 175.158C336.196 175.223 336.13 175.223 336.13 175.223C336.262 175.158 336.196 175.158 336.13 175.223H336.065C336.196 175.223 336.196 175.223 336.065 175.223C335.933 175.223 335.933 175.223 336.065 175.223C335.999 175.223 335.933 175.223 335.867 175.158C335.341 174.961 334.815 175.355 334.684 175.814C334.289 176.404 334.618 176.929 335.144 177.06Z" fill="#242E49"/>
<path d="M223.956 378.332C240.262 378.332 256.634 378.332 272.941 378.332C274.19 378.332 274.19 376.364 272.941 376.364C256.634 376.364 240.262 376.364 223.956 376.364C222.706 376.364 222.706 378.332 223.956 378.332Z" fill="#242E49"/>
<path d="M367.097 377.02C382.811 377.02 398.46 377.02 414.175 377.02C415.424 377.02 415.424 375.052 414.175 375.052C398.46 375.052 382.811 375.052 367.097 375.052C365.847 375.052 365.782 377.02 367.097 377.02Z" fill="#242E49"/>
<path d="M254.859 352.484C252.952 351.5 251.243 350.319 249.73 348.745C249.204 348.22 245.391 343.956 245.983 343.037C246.772 341.791 248.218 344.349 248.415 344.743C248.876 345.661 249.27 346.514 249.73 347.433C250.848 349.86 251.9 352.419 252.887 354.912C253.215 355.699 254.596 355.961 254.793 354.912C255.845 348.876 259.725 343.956 265.445 341.725C265.051 341.397 264.59 341.069 264.196 340.807C264.59 346.908 259.528 350.647 254.991 353.731C253.939 354.452 254.925 356.158 255.977 355.437C261.106 351.96 266.629 347.63 266.169 340.807C266.103 340.216 265.577 339.626 264.919 339.888C258.541 342.316 254.004 347.695 252.887 354.452C253.544 354.452 254.136 354.452 254.793 354.452C253.873 352.156 248.613 335.886 244.536 340.544C242.892 342.447 244.931 345.662 245.983 347.236C248.021 350.254 250.717 352.55 253.939 354.256C254.991 354.78 255.977 353.075 254.859 352.484Z" fill="#242E49"/>
<path d="M395.372 351.762C392.544 349.006 388.994 345.201 387.81 341.331C386.429 336.804 390.703 342.052 391.426 343.299C392.807 345.66 393.531 348.219 393.794 350.909C393.859 351.827 395.109 352.286 395.635 351.434C396.752 349.597 403.196 338.706 406.221 340.871C406.089 340.412 405.958 339.953 405.892 339.494C402.933 344.086 399.251 347.891 394.714 350.974C393.662 351.696 394.648 353.402 395.7 352.68C400.5 349.465 404.445 345.398 407.536 340.478C407.864 340.018 407.601 339.428 407.207 339.1C405.103 337.591 402.999 339.1 401.421 340.609C398.462 343.43 396.029 346.841 393.925 350.384C394.517 350.581 395.174 350.712 395.766 350.909C395.372 347.104 394.188 343.495 391.887 340.412C390.769 338.903 388.533 336.345 386.298 337.394C381.366 339.625 392.084 351.302 393.991 353.205C394.846 354.058 396.226 352.68 395.372 351.762Z" fill="#242E49"/>
<path d="M262.156 252.832C261.893 263.198 265.115 273.169 271.361 281.501C272.085 282.485 273.86 281.501 273.071 280.517C267.022 272.513 263.866 262.935 264.129 252.898C264.129 251.586 262.156 251.586 262.156 252.832Z" fill="#3D4966"/>
<path d="M255.255 273.234C257.622 282.222 262.159 290.226 268.734 296.852C269.654 297.77 271.035 296.392 270.115 295.474C263.803 289.11 259.397 281.369 257.162 272.709C256.833 271.528 254.926 271.988 255.255 273.234Z" fill="#3D4966"/>
<path d="M327.644 104.238C347.962 97.0875 370.712 98.99 389.517 109.487C390.635 110.077 391.621 108.437 390.503 107.781C371.238 97.0219 347.896 94.9882 327.118 102.336C325.935 102.795 326.461 104.698 327.644 104.238Z" fill="#3D4966"/>
<path d="M369.069 92.2978C383.403 92.1009 397.211 97.5461 407.534 107.518C408.454 108.371 409.835 106.993 408.915 106.14C398.263 95.8404 383.929 90.1328 369.069 90.3296C367.754 90.3296 367.754 92.2978 369.069 92.2978Z" fill="#3D4966"/>
<path d="M129.839 319.396C121.083 318.498 112.159 318.835 103.403 320.461C101.551 320.798 99.7545 321.191 98.0145 321.639C93.2437 315.749 87.5748 310.533 81.1762 306.606C79.6047 305.652 77.9208 304.755 76.237 304.025C76.2931 315.301 73.6551 326.52 67.7617 335.383C69.4455 336.729 71.0732 338.356 72.6448 340.039C80.7833 348.734 88.9219 361.355 102.28 353.558C103.01 353.165 103.74 352.717 104.469 352.38C107.332 351.482 110.306 350.922 113.281 350.473C117.996 349.8 122.598 349.8 127.145 350.361C123.721 340.768 126.64 329.717 129.839 319.396Z" fill="white"/>
<path d="M66.1325 420.256C66.806 416.161 67.5357 411.954 68.7705 407.971H28.3585C25.496 423.173 24.7664 438.936 25.8889 454.306H65.2906C64.5048 442.974 64.7854 431.587 66.1325 420.256Z" fill="#A6CBFF"/>
<path d="M65.2927 454.306H25.8911C26.0034 455.709 26.1156 457.167 26.2279 458.569C26.733 464.011 28.0801 468.779 32.0652 472.706C35.4328 476.015 40.9895 478.596 45.7603 478.427C50.9241 478.259 56.3123 476.52 59.9045 472.593C63.1599 469.003 66.0785 463.899 65.6295 458.906C65.5172 457.335 65.405 455.821 65.2927 454.306Z" fill="#242E49"/>
<path d="M151.673 375.098C141.121 368.31 130.682 361.354 119.905 354.903C100.541 343.291 74.4417 345.984 56.7053 359.503C49.4648 365.057 43.5153 371.115 38.6883 378.912C34.142 386.261 31.1111 394.787 29.315 403.202C28.9782 404.772 28.6415 406.343 28.3608 407.914H68.7728C70.2321 403.09 72.4211 398.546 75.901 394.787C86.0601 383.68 98.1837 386.822 109.409 394.451C116.986 399.556 124.564 404.492 132.197 409.372C133.6 410.27 135.003 411.167 136.407 412.065C143.198 400.79 150.663 390.019 158.296 379.361C156.051 377.959 153.862 376.556 151.673 375.098Z" fill="#0F67FE"/>
<mask id="mask0_2_154" style="mask-type:luminance" maskUnits="userSpaceOnUse" x="28" y="347" width="131" height="66">
<path d="M151.676 375.098C141.124 368.31 130.684 361.354 119.908 354.903C100.543 343.291 74.4441 345.984 56.7078 359.503C49.4673 365.057 43.5178 371.115 38.6908 378.912C34.1444 386.261 31.1135 394.787 29.3175 403.202C28.9807 404.772 28.6439 406.343 28.3633 407.914H68.7752C70.2345 403.09 72.4235 398.546 75.9034 394.787C86.0625 383.68 98.1861 386.822 109.412 394.451C116.989 399.556 124.566 404.492 132.199 409.372C133.603 410.27 135.006 411.167 136.409 412.065C143.2 400.79 150.665 390.019 158.299 379.361C156.054 377.959 153.865 376.556 151.676 375.098Z" fill="white"/>
</mask>
<g mask="url(#mask0_2_154)">
<path d="M82.8616 393.891C84.8822 391.76 87.0712 389.853 89.3163 388.001C90.3827 387.104 91.4492 385.982 92.7962 385.421C94.5362 384.748 96.6129 384.916 98.409 385.253C104.134 386.206 109.635 388.899 114.742 391.592C126.417 397.762 137.305 405.391 147.857 413.357C150.271 415.152 152.628 417.003 154.93 418.854C156.894 420.425 159.7 417.676 157.68 416.105C150.664 410.384 143.311 405.055 135.79 399.95C129.56 395.687 123.105 391.648 116.426 388.114C111.038 385.309 105.257 382.504 99.2509 381.438C96.7813 381.046 94.1433 380.877 91.7298 381.663C90.4388 382.111 89.4285 382.785 88.3621 383.682C85.4996 386.038 82.581 388.45 79.9991 391.143C78.3153 392.938 81.1217 395.743 82.8616 393.891Z" fill="white"/>
</g>
<path d="M158.239 379.362C150.662 390.076 143.141 400.79 136.349 412.066C156.443 425.024 176.537 438.094 196.574 451.164C205.723 457.111 214.872 463.057 224.021 469.003C231.037 457.896 237.996 446.789 244.732 435.57C215.938 416.834 187.145 398.042 158.239 379.362Z" fill="#A6CBFF"/>
<path d="M248.21 437.757C247.088 437.027 245.965 436.298 244.842 435.569C238.107 446.844 231.147 457.951 224.131 469.002C225.591 469.956 227.05 470.909 228.565 471.863C237.209 477.472 250.736 473.77 255.507 464.626C260.558 454.81 257.471 443.759 248.21 437.757Z" fill="#242E49"/>
<path d="M186.135 347.387C171.486 331.175 151.224 321.583 129.839 319.395C126.64 329.717 123.777 340.768 127.145 350.416C153.862 353.894 176.481 377.903 179.624 404.717C180.073 408.531 180.13 412.402 181.084 416.104C182.824 423.06 188.605 428.782 196.126 428.501C204.433 428.165 212.235 421.658 212.01 412.851C211.337 388.729 202.356 365.394 186.135 347.387ZM155.882 362.028C156.107 362.196 156.275 362.308 156.275 362.421C156.275 362.421 156.107 362.252 155.882 362.028Z" fill="#A6CBFF"/>
<path d="M76.2373 304.026C66.7517 299.819 55.7507 299.146 45.7038 301.894C22.6915 308.233 8.43504 330.559 7.92989 353.727C7.64925 367.19 11.9711 380.709 18.7625 392.209C22.916 399.333 33.1873 402.474 40.3717 397.818C47.556 393.162 50.4747 383.85 45.9845 376.221C44.7496 374.146 43.6271 371.958 42.6168 369.77C39.9227 362.534 38.4633 354.568 40.5401 346.995C42.4484 340.152 48.2857 333.476 55.6945 332.018C60.6338 331.064 64.4505 332.635 67.8181 335.327C73.6554 326.52 76.2934 315.301 76.2373 304.026ZM40.933 345.256C40.8768 345.144 41.1013 344.583 41.4381 343.966C41.2136 344.583 40.933 345.313 40.933 345.256ZM44.8619 338.188C45.0864 337.852 45.3109 337.515 45.367 337.515C45.4232 337.571 45.1425 337.852 44.8619 338.188ZM59.9602 331.681C59.4551 331.625 58.9499 331.569 58.4448 331.457C58.8377 331.513 59.399 331.625 59.9602 331.681Z" fill="#A6CBFF"/>
<path d="M87.9116 305.652C90.0444 304.25 90.8863 301.333 90.3812 298.808C89.876 296.284 88.2483 294.152 86.3961 292.357C84.7123 290.787 82.7478 289.384 81.4008 287.533C79.9976 285.682 79.2118 283.101 80.2221 281.026C81.4569 278.389 85.4981 277.716 87.5187 279.792C89.0341 281.362 89.6515 284.111 91.7844 284.56C92.514 284.728 93.2998 284.504 93.9733 284.223C96.7797 282.877 97.9023 279.455 98.2391 276.314C98.5197 273.229 98.2952 269.919 99.5861 267.114C100.877 264.253 104.413 262.065 107.163 263.636C109.465 264.982 109.857 268.012 110.475 270.536C111.148 273.06 113.225 275.977 115.751 275.248C116.817 274.968 117.603 274.07 118.445 273.341C120.466 271.546 123.328 270.424 125.966 271.041C128.604 271.658 130.793 274.463 130.12 277.099C129.446 279.848 126.415 281.138 123.721 282.092C121.251 282.933 118.782 283.831 116.312 284.672C114.067 285.457 111.317 287.253 112.103 289.496C112.776 291.46 115.807 291.796 116.593 293.76C117.435 295.891 115.021 297.855 112.888 298.64C110.082 299.65 106.714 300.323 105.199 302.903C104.638 303.857 104.413 305.091 103.627 305.932C102.898 306.718 101.775 307.11 100.709 307.335C95.8256 308.345 90.4373 306.886 86.789 303.52L87.9116 305.652Z" fill="#242E49"/>
<path d="M178.556 405.053L179.735 413.636C180.016 415.992 182.654 418.74 185.46 417.955C188.21 417.226 189.221 413.972 188.884 410.999L188.547 405.894L189.557 406.399L203.533 416.665C206.788 419.077 210.661 419.414 212.121 417.506L212.345 417.226C213.692 415.431 212.457 412.233 209.707 409.877C212.794 411.841 216.218 412.009 217.565 410.214L217.79 409.933C218.744 408.643 218.407 406.624 217.06 404.716C218.968 405.165 220.764 404.773 221.718 403.482C223.458 401.126 222.055 397.087 218.575 394.507L190.511 373.864L177.714 391.253L178.556 405.053Z" fill="#A6CBFF"/>
<path d="M176.761 391.309C177.21 398.264 177.715 405.164 178.669 412.12C178.95 413.971 179.175 415.598 180.522 417.056C182.206 418.908 184.956 419.637 187.145 418.178C190.961 415.654 189.671 409.82 189.39 406.006C188.941 406.23 188.548 406.51 188.099 406.735C193.207 409.427 197.753 413.691 202.468 417.056C204.993 418.908 209.259 421.095 212.178 418.739C215.545 416.047 212.683 411.559 210.269 409.371C209.933 409.82 209.596 410.269 209.259 410.718C211.616 412.064 215.321 413.466 217.678 411.335C219.867 409.427 219.025 406.51 217.678 404.379C217.341 404.772 217.061 405.22 216.724 405.613C219.643 406.118 222.617 405.22 223.123 401.967C223.628 398.657 221.27 395.796 218.913 393.889C215.433 391.084 211.841 388.335 208.361 385.587C207.519 384.914 206.34 386.092 207.182 386.765C209.82 388.84 212.458 390.86 215.04 392.935C215.994 393.665 216.949 394.394 217.903 395.179C219.25 396.301 220.485 397.479 221.158 399.162C222.337 402.135 220.709 404.603 217.285 403.986C216.612 403.874 215.938 404.547 216.331 405.22C217.229 406.735 218.071 409.203 216.219 410.381C214.423 411.503 211.673 410.157 210.157 409.259C209.371 408.81 208.417 409.932 209.147 410.605C210.662 412.008 213.244 414.925 211.56 417.113C209.764 419.413 205.835 417.393 204.039 416.103C202.636 415.149 201.289 414.083 199.886 413.074C196.406 410.493 192.926 407.352 189.053 405.332C188.548 405.052 187.762 405.389 187.762 406.062C187.987 409.371 189.558 417.842 184.17 417.113C179.848 416.552 180.129 410.045 179.68 406.679C179.062 402.135 178.894 396.469 178.557 391.421C178.389 390.243 176.705 390.243 176.761 391.309Z" fill="#242E49"/>
<path d="M189.39 405.839C187.481 404.436 185.573 403.034 183.609 401.632C182.711 401.014 181.869 402.473 182.767 403.09C184.675 404.492 186.583 405.895 188.548 407.297C189.446 407.97 190.288 406.512 189.39 405.839Z" fill="#242E49"/>
<path d="M212.289 410.943C207.238 407.241 202.186 403.538 197.078 399.78C196.18 399.163 195.338 400.621 196.236 401.238C201.288 404.941 206.339 408.643 211.447 412.402C212.289 413.019 213.131 411.56 212.289 410.943Z" fill="#242E49"/>
<path d="M217.454 403.875C212.571 400.285 207.688 396.695 202.749 393.105C201.851 392.488 201.009 393.946 201.907 394.563C206.79 398.153 211.673 401.743 216.612 405.334C217.51 405.951 218.352 404.492 217.454 403.875Z" fill="#242E49"/>
<path d="M220.709 398.153C215.826 404.772 210.999 411.391 206.115 418.067C205.498 418.964 206.957 419.806 207.575 418.908C212.458 412.289 217.285 405.67 222.168 398.994C222.842 398.097 221.382 397.255 220.709 398.153Z" fill="#242E49"/>
<path d="M188.492 413.355C185.798 412.85 183.048 412.57 180.298 412.626C179.231 412.626 179.231 414.309 180.298 414.309C182.936 414.253 185.518 414.477 188.043 414.926C189.11 415.15 189.559 413.579 188.492 413.355Z" fill="#242E49"/>
<path d="M49.629 394.116L50.6393 402.754C50.9761 405.11 49.1239 408.42 46.1491 408.364C43.2866 408.364 41.4905 405.447 41.0976 402.474L40.1434 397.481L39.3015 398.211L28.3005 411.674C25.7186 414.815 22.0703 416.161 20.2181 414.591L19.9375 414.366C18.1975 412.964 18.5343 409.542 20.6671 406.569C18.1414 409.205 14.886 410.271 13.146 408.813L12.8654 408.588C11.6306 407.579 11.4622 405.503 12.248 403.315C10.508 404.269 8.65582 404.325 7.42101 403.315C5.11977 401.464 5.51267 397.201 8.26292 393.835L30.3772 366.909L47.1033 380.54L49.629 394.116Z" fill="#A6CBFF"/>
<path d="M40.5377 398.771C42.0532 396.92 43.5686 395.069 45.0841 393.217C45.7576 392.376 44.5789 391.198 43.9054 392.039C42.3899 393.891 40.8745 395.742 39.3591 397.593C38.6294 398.434 39.8642 399.612 40.5377 398.771Z" fill="#242E49"/>
<path d="M19.6552 409.429C23.6402 404.549 27.6253 399.725 31.5542 394.844C32.2278 394.003 31.0491 392.825 30.3756 393.666C26.3905 398.547 22.4054 403.371 18.4765 408.251C17.803 409.037 18.9816 410.271 19.6552 409.429Z" fill="#242E49"/>
<path d="M12.8651 403.877C16.6818 399.165 20.5546 394.453 24.3713 389.797C25.0448 388.956 23.8662 387.778 23.1926 388.619C19.376 393.331 15.5031 398.043 11.6865 402.699C11.0129 403.541 12.1916 404.719 12.8651 403.877Z" fill="#242E49"/>
<path d="M5.90439 399.165C12.3029 404.382 18.6454 409.543 25.0439 414.76C25.8858 415.433 27.0645 414.255 26.2226 413.582C19.824 408.365 13.4816 403.204 7.08307 397.987C6.24115 397.258 5.06247 398.436 5.90439 399.165Z" fill="#242E49"/>
<path d="M42.9484 406.065C45.3057 404.943 47.7754 404.102 50.3011 403.485C51.3675 403.26 50.9185 401.634 49.8521 401.858C47.1579 402.475 44.5761 403.429 42.1065 404.607C41.0962 405.112 41.9381 406.514 42.9484 406.065Z" fill="#242E49"/>
<path d="M1.19287 478.315C1.19287 464.964 12.0255 454.138 25.3839 454.138C38.7423 454.138 49.5749 464.964 49.5749 478.315H1.19287Z" fill="#DCE1E8"/>
<path d="M254.275 466.759C242.432 460.532 237.942 445.891 244.172 434.055C250.402 422.219 265.052 417.731 276.894 423.958L254.275 466.759Z" fill="#DCE1E8"/>
<path d="M86.8446 323.77L90.8296 308.961C89.4264 309.353 87.8549 309.073 86.6762 308.063C84.7678 306.436 84.5433 303.576 86.171 301.724C87.7987 299.873 90.6612 299.593 92.5135 301.219C92.6257 301.332 92.738 301.388 92.8502 301.5L94.5341 295.105C94.7586 294.32 95.4882 293.815 96.3301 293.871C100.371 294.32 111.709 296.62 113.056 309.297C113.168 310.251 112.439 311.092 111.485 311.148L106.545 311.373L108.678 325.004C109.464 330.165 106.714 335.27 101.831 337.177C101.606 337.289 101.382 337.345 101.157 337.401C92.738 340.206 84.5433 332.353 86.8446 323.77Z" fill="#A6CBFF"/>
<path d="M102.28 298.414C100.652 297.797 98.7998 298.022 97.3966 299.032C96.5547 299.649 97.3966 301.107 98.2385 300.49C99.3049 299.705 100.596 299.536 101.831 300.041C102.841 300.434 103.29 298.807 102.28 298.414Z" fill="#242E49"/>
<path d="M104.186 298.08C106.262 299.65 108.339 301.221 110.416 302.792C110.416 302.287 110.416 301.838 110.416 301.333C109.462 301.894 108.508 302.343 107.441 302.679C106.375 302.96 106.824 304.587 107.89 304.306C109.069 303.97 110.248 303.465 111.314 302.792C111.875 302.455 111.819 301.726 111.314 301.333C109.237 299.762 107.16 298.192 105.084 296.621C104.186 295.948 103.344 297.406 104.186 298.08Z" fill="#242E49"/>
<path d="M104.525 305.483C104.413 305.539 104.357 305.539 104.301 305.539C104.132 305.539 104.02 305.483 103.908 305.371C103.852 305.315 103.739 305.203 103.683 305.146C103.627 305.034 103.627 304.978 103.627 304.922C103.683 304.473 103.515 304.025 103.066 303.912C102.673 303.8 102.112 304.025 102.056 304.473C101.887 305.427 102.28 306.212 103.066 306.773C103.796 307.278 104.694 307.334 105.479 306.942C106.321 306.381 105.423 304.922 104.525 305.483Z" fill="#242E49"/>
<path d="M243.497 434.337C241.814 432.71 239.793 430.803 239.176 428.447C238.502 425.81 240.074 424.127 241.758 422.445C243.329 420.874 245.181 419.079 244.957 416.611C244.845 415.208 244.059 414.142 243.273 413.077C242.543 412.123 241.421 411.225 241.196 409.991C240.691 407.411 242.319 407.411 243.61 406.682C246.472 405.111 246.135 402.306 245.069 399.557C244.676 398.548 243.048 398.996 243.441 400.006C244.171 401.913 244.901 403.596 242.768 405.223C242.15 405.672 241.308 405.784 240.691 406.289C239.681 407.13 239.288 408.196 239.4 409.486C239.793 413.525 245.574 415.545 241.982 419.808C240.242 421.827 237.829 423.454 237.436 426.259C236.874 429.961 239.849 433.159 242.319 435.515C243.105 436.3 244.283 435.066 243.497 434.337Z" fill="#242E49"/>
<path d="M244.674 434.167C242.654 431.026 243.945 427.884 246.807 425.865C248.323 424.799 249.501 423.845 249.67 421.938C249.838 420.143 249.052 418.516 250.399 416.89C251.073 416.104 252.195 415.655 252.925 414.926C254.16 413.804 254.833 412.402 254.272 410.719C253.935 409.709 252.308 410.158 252.644 411.168C253.43 413.636 248.996 415.151 248.154 417.17C247.761 418.18 247.874 419.246 247.93 420.255C248.042 422.611 246.639 423.789 244.955 425.08C241.756 427.436 241.082 431.755 243.215 435.009C243.832 435.906 245.292 435.065 244.674 434.167Z" fill="#242E49"/>
<path d="M25.3305 453.128C21.2332 451.894 18.09 449.146 16.1817 445.331C16.0694 445.724 15.9572 446.116 15.901 446.509C19.2687 444.153 24.7131 451.614 26.1163 453.802C26.3969 454.25 27.295 454.419 27.5756 453.802C28.5859 451.446 30.0452 449.426 32.1219 447.968C33.469 447.014 37.2857 444.658 39.0818 445.443C42.0004 446.677 38.0715 448.304 37.3418 448.697C36.107 449.314 34.8722 449.875 33.6374 450.436C30.8871 451.614 28.0807 452.68 25.2182 453.633C24.2079 453.97 24.657 455.597 25.6673 455.26C28.0807 454.475 45.9293 449.37 41.3269 444.546C39.5308 442.695 35.209 444.377 33.3006 445.331C30.0452 446.958 27.5195 449.707 26.1163 453.016C26.6214 453.016 27.0704 453.016 27.5756 453.016C25.555 449.875 19.5493 441.965 15.0591 445.107C14.6662 445.387 14.554 445.836 14.7785 446.285C16.8552 450.492 20.4474 453.465 24.9376 454.867C25.8918 455.036 26.3408 453.409 25.3305 453.128Z" fill="#242E49"/>
<path d="M0.799819 478.763C17.2452 478.763 33.7468 478.763 50.1922 478.763C51.2586 478.763 51.2586 477.081 50.1922 477.081C33.7468 477.081 17.2452 477.081 0.799819 477.081C-0.266606 477.081 -0.266606 478.763 0.799819 478.763Z" fill="#242E49"/>
<path d="M254.216 467.32C261.007 454.81 267.855 442.245 274.646 429.735C275.601 427.94 276.611 426.145 277.565 424.35C278.07 423.397 276.611 422.555 276.106 423.509C269.314 436.018 262.467 448.584 255.675 461.093C254.721 462.888 253.711 464.683 252.757 466.478C252.251 467.432 253.711 468.273 254.216 467.32Z" fill="#242E49"/>
<path d="M19.4332 296.396C29.9852 287.084 44.3539 282.764 58.3297 284.672C59.3961 284.84 59.8451 283.213 58.7787 283.045C44.1294 281.025 29.3117 285.457 18.1984 295.218C17.4126 295.947 18.5913 297.125 19.4332 296.396Z" fill="#3D4966"/>
<path d="M36.8344 277.716C43.9064 274.799 51.4276 273.621 59.0609 274.35C60.1273 274.462 60.1273 272.779 59.0609 272.667C51.2592 271.938 43.5697 273.116 36.3853 276.089C35.4312 276.538 35.8802 278.164 36.8344 277.716Z" fill="#3D4966"/>
<path d="M16.1806 336.113C16.798 333.757 18.2012 331.793 20.2218 330.447C21.1198 329.83 20.2779 328.371 19.3799 328.988C16.9664 330.559 15.2826 332.859 14.5529 335.664C14.2723 336.73 15.9 337.178 16.1806 336.113Z" fill="#242E49"/>
<path d="M174.911 345.48C177.324 346.49 179.233 348.285 180.411 350.641C180.916 351.595 182.376 350.753 181.871 349.8C180.467 347.051 178.166 345.088 175.36 343.91C174.35 343.461 173.9 345.088 174.911 345.48Z" fill="#242E49"/>
<path d="M244.451 435.457C249.67 422.892 264.657 417.955 276.443 424.687C277.398 425.248 278.239 423.789 277.285 423.228C264.488 415.88 248.492 421.433 242.823 435.008C242.43 436.018 244.058 436.411 244.451 435.457Z" fill="#242E49"/>
<defs>
<clipPath id="clip0_2_154">
<rect width="274.71" height="284.327" fill="white" transform="translate(0.015625 0.236816)"/>
</clipPath>
</defs>
</svg>
